<?xml version="1.0" encoding="UTF-8" standalone="no"?>
<!-- Created with Inkscape (http://www.inkscape.org/) -->

<svg
   width="39.471001mm"
   height="39.471008mm"
   viewBox="0 0 39.471001 39.471008"
   version="1.1"
   id="svg1"
   xml:space="preserve"
   xmlns="http://www.w3.org/2000/svg"
   xmlns:svg="http://www.w3.org/2000/svg"><defs
     id="defs1" /><g
     id="layer1"
     transform="translate(-119.84233,-179.49752)"><rect
       style="fill:none;fill-opacity:1;stroke:none;stroke-width:0.529;stroke-linecap:round;stroke-linejoin:round;stroke-dasharray:none;stroke-opacity:1;paint-order:markers stroke fill"
       id="rect4"
       width="39.471001"
       height="39.471001"
       x="119.84232"
       y="179.49753"
       rx="5"
       ry="5" /><g
       id="g4"><path
         style="fill:#ffffff;fill-opacity:1;stroke:none;stroke-width:0.529;stroke-linecap:round;stroke-linejoin:round;stroke-dasharray:none;stroke-opacity:1;paint-order:markers fill stroke"
         d="m 136.4923,188.86918 0.70303,2.18794 -4.57708,0.34208 -1.24454,0.8253 -1.14238,-0.30464 -1.75794,0.93629 -5.66299,5.84277 -0.31461,3.52813 0.29214,0.809 0.83147,-0.9663 1.10114,-1.68542 0.71911,-0.35955 0.67416,0.94383 1.73036,-1.10114 1.05619,-1.57305 -0.0449,1.41575 -0.89889,1.7753 -1.16855,2.1798 -0.0899,1.41575 0.4045,0.89888 h 0.60675 l 0.94383,-0.0899 0.35955,1.07867 0.38203,-0.0674 1.48316,-0.62922 0.0674,2.13486 0.38203,1.21349 0.83147,0.74158 0.49439,0.0899 0.87641,-0.51686 3.05621,1.14609 3.14611,0.58427 2.85396,-0.31461 2.5843,-0.98878 0.98878,0.53934 1.32586,-1.03372 0.78652,-2.22475 -0.38203,-1.66294 1.19103,0.4045 0.89889,-1.25844 1.46069,-0.17978 0.78652,-1.12361 -0.7191,-1.57305 -0.62923,-1.01125 -0.20225,-2.1798 1.79778,1.30339 1.05619,1.03372 0.5618,-0.69664 0.2472,-1.05619 1.23597,1.30339 0.24719,-1.03372 -0.67417,-2.26969 -1.97755,-2.47194 -2.1798,-2.9888 -1.73035,-1.52811 h -1.12361 l -1.41575,0.67417 -0.94383,0.85394 -2.71913,-0.98878 -1.23597,-0.1573 0.78653,-1.75283 0.17977,-1.07866 -0.69664,-0.045 -1.01124,1.07867 -0.49439,0.85394 -0.83147,-1.57305 -0.76405,-0.0899 -0.29214,1.64047 -1.43822,-1.07867 z"
         id="path4" /><path
         style="fill:#000000;stroke:#ffffff;stroke-opacity:1;paint-order:markers stroke fill"
         d="m 137.88951,211.85387 c -0.82946,-0.12655 -2.09112,-0.52552 -2.80369,-0.88661 -1.17947,-0.59768 -1.33295,-0.61914 -1.71262,-0.23947 -0.37967,0.37967 -0.49588,0.371 -1.29676,-0.0967 -1.06395,-0.62138 -1.53326,-1.47549 -1.53847,-2.79992 -0.004,-0.94845 -0.31708,-1.29112 -0.66536,-0.7276 -0.32218,0.5213 -1.17736,0.27723 -1.34315,-0.38333 -0.13903,-0.55392 -0.23357,-0.6036 -0.6517,-0.34248 -0.39349,0.24574 -0.59541,0.20922 -1.03305,-0.18684 -1.01036,-0.91436 -0.60067,-2.85115 1.17812,-5.56965 l 0.51937,-0.79375 -0.99764,0.8599 c -1.148,0.98948 -1.76246,1.08959 -1.96374,0.31991 -0.20663,-0.79016 -0.64665,-0.51206 -1.41656,0.89532 -0.86348,1.5784 -1.11059,1.8186 -1.65574,1.60941 -0.35217,-0.13514 -0.44111,-0.53355 -0.44111,-1.97583 0,-0.9936 0.12347,-2.14172 0.27439,-2.55138 0.15092,-0.40965 1.25224,-1.7086 2.4474,-2.88654 1.19515,-1.17794 2.59015,-2.62555 3.09999,-3.21692 0.98814,-1.14613 2.59723,-1.71478 3.40696,-1.20401 0.29434,0.18566 0.66987,0.10665 1.3221,-0.27818 0.61553,-0.36317 1.4002,-0.54236 2.41938,-0.5525 l 1.50838,-0.015 -0.35834,-1.02036 c -0.19708,-0.5612 -0.29259,-1.12674 -0.21223,-1.25677 0.23347,-0.37775 1.34245,-0.27322 1.70238,0.16046 0.44432,0.53537 0.62131,0.50085 0.92945,-0.18132 0.37893,-0.83888 0.84327,-0.87877 1.51045,-0.12974 l 0.58723,0.65927 0.59047,-0.63712 c 1.24011,-1.3381 2.30578,-0.44047 1.56941,1.32193 l -0.39258,0.93956 1.07739,0.29011 c 0.59256,0.15956 1.29309,0.42482 1.55674,0.58947 0.37442,0.23383 0.58394,0.20756 0.95717,-0.12001 0.67367,-0.59127 2.08649,-1.27694 2.63112,-1.27694 0.76881,0 2.14306,1.11464 2.92631,2.37351 0.40767,0.65522 1.37832,1.88955 2.157,2.74295 0.77868,0.85341 1.63004,2.04562 1.89191,2.64937 0.67799,1.56308 0.91601,3.27695 0.52117,3.7527 -0.47786,0.57579 -0.72455,0.48023 -1.21888,-0.47217 l -0.44632,-0.8599 -0.24398,0.72761 c -0.27248,0.81259 -0.75732,0.93428 -1.26847,0.31837 -0.1868,-0.22507 -0.67763,-0.6499 -1.09073,-0.94405 l -0.7511,-0.53484 v 0.79147 c 0,0.45821 0.27851,1.12246 0.66145,1.57756 1.20717,1.43464 0.55444,3.22326 -1.17627,3.22326 -0.34834,0 -0.59104,0.22952 -0.69945,0.66145 -0.11225,0.44722 -0.34955,0.66195 -0.73265,0.66296 -0.47379,0.001 -0.5727,0.1676 -0.60372,1.01528 -0.0719,1.96434 -1.64735,3.81389 -2.80771,3.29613 -0.35995,-0.16061 -0.97382,-0.0919 -1.88706,0.21131 -1.7609,0.5846 -4.14895,0.77872 -6.03666,0.49071 z m 6.32621,-1.52224 c 1.32326,-0.69169 1.66419,-0.72515 1.66419,-0.16335 0,0.63397 0.58801,0.30982 1.27691,-0.7039 0.66942,-0.98506 0.67754,-2.04914 0.0275,-3.60753 -0.47901,-1.14837 -0.13626,-1.38185 0.76335,-0.51997 0.98114,0.93999 1.20649,0.89328 1.02699,-0.21288 -0.1862,-1.1474 0.0962,-1.33764 1.16509,-0.78489 0.7903,0.40868 0.86369,0.40431 1.34828,-0.0803 0.50691,-0.50691 0.50448,-0.52198 -0.22405,-1.38779 -0.59594,-0.70823 -0.77131,-1.23945 -0.91875,-2.78308 -0.10023,-1.04928 -0.33775,-2.1568 -0.52782,-2.46116 -0.19008,-0.30435 -0.25056,-0.64809 -0.1344,-0.76385 0.24238,-0.24154 1.22398,0.86655 1.22398,1.38171 0,0.18861 0.61493,0.85777 1.36651,1.48703 l 1.36651,1.14411 -0.17901,-1.11947 c -0.15849,-0.99111 -0.12051,-1.11947 0.33121,-1.11947 0.28063,0 0.7664,0.32742 1.07949,0.7276 l 0.56927,0.72761 -0.16905,-0.79375 c -0.20598,-0.96712 -1.4583,-2.97281 -2.40496,-3.85172 -0.3828,-0.35541 -1.16362,-1.3311 -1.73516,-2.1682 -1.41054,-2.06595 -2.07818,-2.48752 -3.20293,-2.02245 -0.47209,0.19521 -1.10558,0.62118 -1.40776,0.94661 l -0.54942,0.5917 -1.56725,-0.6443 c -0.86198,-0.35436 -1.90269,-0.64712 -2.31268,-0.65057 -0.65009,-0.005 -0.72194,-0.0824 -0.56179,-0.60159 0.101,-0.32742 0.35593,-0.9338 0.56651,-1.34751 0.21057,-0.4137 0.34087,-0.79418 0.28954,-0.84551 -0.19416,-0.19416 -0.68142,0.30564 -1.1062,1.13468 -0.47524,0.92752 -1.22075,1.16038 -1.22075,0.3813 0,-0.26323 -0.18659,-0.70971 -0.41464,-0.99218 -0.38906,-0.48189 -0.40694,-0.44418 -0.28977,0.61088 0.15176,1.36644 -0.20049,1.45746 -1.27996,0.33073 -0.96105,-1.00312 -1.21401,-1.00409 -0.92707,-0.004 0.12464,0.4346 0.1461,0.83553 0.0477,0.89095 -0.0984,0.0554 -0.98712,0.24996 -1.97489,0.43229 -0.98777,0.18234 -2.21345,0.61484 -2.72373,0.96113 -1.10284,0.74841 -1.15154,0.75445 -1.56155,0.19372 -0.45859,-0.62716 -1.65498,-0.25626 -2.49716,0.77416 -0.37511,0.45897 -1.64896,1.791 -2.83076,2.96009 -1.18181,1.16908 -2.28313,2.38566 -2.4474,2.70352 -0.16426,0.31785 -0.2934,1.21082 -0.28697,1.98437 l 0.0117,1.40646 0.51156,-0.96833 c 0.81556,-1.54379 2.64006,-2.71388 2.64006,-1.69312 0,0.81749 0.58206,0.66471 1.59138,-0.41768 0.57995,-0.62194 1.05445,-1.35434 1.05445,-1.62757 0,-0.28181 0.14312,-0.44746 0.33073,-0.38282 0.20732,0.0714 0.32723,0.60937 0.32135,1.44161 -0.008,1.09803 -0.1846,1.58207 -1.02244,2.79859 -0.67062,0.97371 -1.05788,1.86847 -1.14563,2.647 -0.16611,1.47376 0.23736,1.76838 0.98461,0.71897 0.79016,-1.10968 1.06055,-0.99753 1.06055,0.43988 v 1.23675 l 0.59531,-0.54488 c 0.32742,-0.29968 0.86483,-0.62663 1.19423,-0.72655 0.59192,-0.17955 0.59698,-0.16057 0.43194,1.62323 -0.14483,1.56548 -0.0964,1.89184 0.36485,2.46015 0.48877,0.60218 0.58698,0.62571 1.21299,0.29068 0.61018,-0.32655 0.84061,-0.29457 2.21123,0.30692 0.84154,0.3693 1.70866,0.74149 1.92695,0.82709 0.21828,0.0856 1.64703,0.12302 3.175,0.0831 2.2544,-0.0588 2.98812,-0.18226 3.89206,-0.65476 z m -6.00873,-2.29007 c 0,-0.23039 0.37172,-0.45462 0.92604,-0.55862 0.55473,-0.10406 0.92604,-0.32817 0.92604,-0.55892 0,-0.21186 -0.41672,-0.77821 -0.92604,-1.25857 -1.06517,-1.00458 -1.189,-1.88405 -0.38657,-2.74537 0.37244,-0.39976 0.85128,-0.57905 1.5465,-0.57905 1.80978,0 2.51937,1.69096 1.22132,2.91041 -0.40289,0.3785 -0.66146,0.91367 -0.66146,1.36904 0,0.65431 0.0991,0.74763 0.79375,0.74763 1.1682,0 1.01454,0.68802 -0.19843,0.88851 -1.81447,0.29991 -3.24115,0.20525 -3.24115,-0.21506 z m 6.51995,-2.16142 c -0.25147,-0.52734 -0.38233,-1.03335 -0.29081,-1.12448 0.24722,-0.24613 1.1792,1.00532 1.1792,1.58343 0,0.78777 -0.38993,0.58633 -0.88839,-0.45895 z m -11.01787,0.0738 c 0,-0.42348 0.83833,-1.23163 1.27761,-1.23163 0.48202,0 0.36768,0.38263 -0.30247,1.01221 -0.7052,0.6625 -0.97514,0.72324 -0.97514,0.21942 z m -1.5875,-1.25199 c 0,-0.43823 1.49414,-1.83173 1.96403,-1.83173 0.61337,0 0.52277,0.20057 -0.54583,1.20839 -0.99024,0.93392 -1.4182,1.12202 -1.4182,0.62334 z m 13.82311,-1.18114 c -0.66729,-0.46739 -0.77956,-0.91517 -0.22946,-0.91517 0.45124,0 1.04099,0.67838 0.91593,1.05357 -0.0572,0.17154 -0.31946,0.11866 -0.68647,-0.1384 z m -13.22779,-2.79772 c -0.71656,-0.4589 -0.8585,-0.71175 -0.85149,-1.5169 0.009,-1.07779 0.34844,-1.64351 1.28362,-2.14179 0.7734,-0.41208 2.59741,-0.16883 3.26512,0.43544 0.81236,0.73517 0.50221,2.62397 -0.56547,3.44371 -0.64774,0.49731 -2.17934,0.3895 -3.13178,-0.22046 z m 2.96155,-0.82219 c 0.74269,-1.06033 0.4647,-1.77401 -0.84775,-2.17644 -0.56427,-0.17302 -0.58013,-0.1438 -0.27977,0.51544 0.23789,0.5221 0.24443,0.89487 0.0259,1.47394 -0.2581,0.6838 -0.2347,0.7751 0.19862,0.7751 0.27015,0 0.67652,-0.26461 0.90306,-0.58804 z m 7.6759,0.73236 c -0.9562,-0.9562 -0.88741,-2.27829 0.16462,-3.16351 1.13896,-0.95837 2.42593,-0.92528 3.43963,0.0884 0.9302,0.9302 1.01174,2.02724 0.22503,3.02738 -0.46107,0.58616 -0.75783,0.69714 -1.86411,0.69714 -1.04418,0 -1.44978,-0.13404 -1.96517,-0.64943 z m 3.36252,-0.79494 c 0.37447,-0.82186 -0.2536,-1.90512 -1.2495,-2.15508 -0.87548,-0.21973 -1.08686,0.0212 -0.51784,0.59019 0.32311,0.32311 0.41401,0.71131 0.31271,1.33552 -0.12934,0.79704 -0.0815,0.87999 0.50769,0.87999 0.43422,0 0.74906,-0.21632 0.94694,-0.65062 z m -9.81477,-3.82199 c -0.54373,-0.7636 -0.72838,-1.61579 -0.34875,-1.60953 0.1711,0.003 1.35409,1.60475 1.60955,2.17954 0.2496,0.56159 -0.78956,0.0918 -1.2608,-0.57001 z m 1.88047,-1.14978 c -0.12831,-0.47295 -0.18422,-0.9492 -0.12424,-1.05834 0.21634,-0.39361 0.55284,-0.18566 0.70948,0.43844 0.0879,0.35029 0.23263,0.82654 0.32158,1.05834 0.10585,0.27585 0.0174,0.42145 -0.25589,0.42145 -0.24691,0 -0.51299,-0.35149 -0.65093,-0.85989 z m 2.07026,0.23083 c 0,-0.63977 0.67383,-1.43114 0.96805,-1.13692 0.21217,0.21217 -0.43502,1.76598 -0.73556,1.76598 -0.12787,0 -0.23249,-0.28307 -0.23249,-0.62906 z m 1.5875,0.40549 c 0,-0.31778 0.9083,-1.09934 1.27761,-1.09934 0.45411,0 0.3784,0.38515 -0.17396,0.88503 -0.51722,0.46807 -1.10365,0.58195 -1.10365,0.21431 z"
         id="path1" /></g></g></svg>
